<?xml version="1.0" encoding="utf-8"?>
<!-- Generator: Adobe Illustrator 19.2.0, SVG Export Plug-In . SVG Version: 6.00 Build 0)  -->
<svg version="1.1" id="Layer_1" xmlns="http://www.w3.org/2000/svg" xmlns:xlink="http://www.w3.org/1999/xlink" x="0px" y="0px"
	 viewBox="0 0 300 100" style="enable-background:new 0 0 300 100;" xml:space="preserve">
<style type="text/css">
	.st0{fill:#E43F25;}
	.st1{fill:#6EBD44;}
	.st2{fill:#2094CF;}
	.st3{opacity:0.57;}
	.st4{fill:#FFFFFF;}
	.st5{fill:#FFCA05;}
	.st6{opacity:0.64;}
	.st7{fill:#6ABC45;}
	.st8{opacity:0.4;}
	.st9{fill:#158B9B;}
	.st10{opacity:0.67;}
	.st11{fill:#F58829;}
	.st12{opacity:0.55;}
	.st13{fill:#353535;}
	.st14{fill:#212120;}
</style>
<g>
	<g>
		<g>
			<g>
				<g>
					<g>
						<g>
							<path class="st0" d="M89.6,42.3c-4,0-7.7,1.4-10.6,3.7c0.2,0,0.5,0,0.7,0c3.8,0,6.9,3.1,6.9,6.9c0,3.8-3.1,6.9-6.9,6.9
								c-3.1,0-5.8-2.1-6.6-5c-0.4,1.5-0.6,3-0.6,4.6c0,1.2,0.1,2.4,0.4,3.5c0,0,0,0,0,0c19.4-1.9,29.8-10.7,29.8-10.7
								c-1.9,3.9-3,5.8-9,10.5c-6,4.6-5.4,12.4-5.4,12.4v1.4c0.5,0,0.9,0.1,1.4,0.1c9.5,0,17.2-7.7,17.2-17.2
								C106.8,50,99.1,42.3,89.6,42.3z"/>
						</g>
					</g>
				</g>
				<g>
					<g>
						<g>
							<path class="st1" d="M19.7,75.1c0,0,0.6-7.7-5.4-12.4c-6-4.6-7.1-6.5-9-10.5c0,0,10.6,8.9,30.2,10.7c0,0,0,0,0,0
								c0.3-1.2,0.5-2.5,0.5-3.9c0-1.9-0.3-3.6-0.9-5.3c-0.5,3.4-3.4,6-6.9,6c-3.8,0-6.9-3.1-6.9-6.9c0-3.8,3.1-6.9,6.9-6.9
								c0.5,0,1,0.1,1.5,0.2c-2.9-2.4-6.6-3.8-10.6-3.8c-9.3,0-16.8,7.5-16.8,16.8S9.8,76,19.1,76c0.2,0,0.4,0,0.6,0V75.1z"/>
						</g>
					</g>
				</g>
				<g>
					<g>
						<g>
							<g>
								<path class="st2" d="M37.2,23.4c-14.5,0-26.3,11.8-26.3,26.3c0,2.3,0.3,4.5,0.8,6.6c5.1,2.6,13.1,5.7,23.7,6.7
									c3.8,1.3,7.6,3.3,8.4,6.5c-1.2,0.2-2.2,0.5-2.8,0.9c-2.8,1.7-4.2,2.9-4.7,5.6c0.3,0,0.5,0,0.8,0c3.1,0,6.1-0.5,8.9-1.5v-2.7
									c0,0,0-1.2-0.4-2.7c0,0-0.1,0-0.1,0s0,0,0-0.1c-0.7-2.6-2.5-6.1-7.7-6.1c0,0,3.5-2.7,16.7-2.7c2.5,0,4.7,0.1,6.5,0.3
									c1.4-3.3,2.2-6.9,2.2-10.6C63.5,35.2,51.7,23.4,37.2,23.4z M28.2,59.8c-3.8,0-6.9-3.1-6.9-6.9c0-3.8,3.1-6.9,6.9-6.9
									c3.8,0,6.9,3.1,6.9,6.9C35.2,56.7,32.1,59.8,28.2,59.8z M54.3,58.6c-3.8,0-6.9-3.1-6.9-6.9s3.1-6.9,6.9-6.9
									c3.8,0,6.9,3.1,6.9,6.9S58.2,58.6,54.3,58.6z"/>
							</g>
						</g>
					</g>
				</g>
				<g>
					<g>
						<g>
							<g>
								<path class="st2" d="M14.5,62.9c1.1,1.9,2.4,3.6,3.9,5.1C17.6,66.2,16.4,64.4,14.5,62.9z"/>
							</g>
						</g>
					</g>
				</g>
				<g class="st3">
					<g>
						<g>
							<g>
								<g>
									<circle class="st4" cx="29.6" cy="32.3" r="1.8"/>
								</g>
							</g>
						</g>
					</g>
					<g>
						<g>
							<g>
								<g>
									<circle class="st4" cx="19.1" cy="47.1" r="1.8"/>
								</g>
							</g>
						</g>
					</g>
					<g>
						<g>
							<g>
								<g>
									<circle class="st4" cx="43.9" cy="41.2" r="1.8"/>
								</g>
							</g>
						</g>
					</g>
					<g>
						<g>
							<g>
								<path class="st4" d="M45.8,24.8c-0.4,0.3-0.6,0.7-0.6,1.2c0,0.9,0.7,1.6,1.6,1.6c0.9,0,1.6-0.7,1.6-1.6c0-0.1,0-0.2,0-0.2
									C47.5,25.5,46.6,25.1,45.8,24.8z"/>
							</g>
						</g>
					</g>
					<g>
						<g>
							<g>
								<g>
									<circle class="st4" cx="59.3" cy="39" r="1.5"/>
								</g>
							</g>
						</g>
					</g>
					<g>
						<g>
							<g>
								<g>
									<circle class="st4" cx="63.3" cy="56.5" r="2.8"/>
								</g>
							</g>
						</g>
					</g>
					<g>
						<g>
							<g>
								<g>
									<circle class="st4" cx="12.3" cy="63.8" r="2.1"/>
								</g>
							</g>
						</g>
					</g>
					<g>
						<g>
							<g>
								<path class="st4" d="M27.9,25.1l1.4,7.1l-15.1,4.7c-0.1,0.2-0.2,0.4-0.4,0.7l15.8-5l0.2-0.1l-1.6-7.6
									C28.2,25,28,25,27.9,25.1z"/>
							</g>
						</g>
					</g>
					<g>
						<g>
							<g>
								<g>
									<polygon class="st4" points="43.6,41.5 46.5,26 47,26.1 44.2,40.9 59.6,38.7 59.7,39.2 									"/>
								</g>
							</g>
						</g>
					</g>
					<g>
						<g>
							<g>
								<path class="st4" d="M61,53.3l1.8,3.4l-11.1,3.3c0.6,0,1.3,0,2,0l9.8-3l-2.4-4.5C61.2,52.8,61.1,53.1,61,53.3z"/>
							</g>
						</g>
					</g>
					<g>
						<g>
							<g>
								<g>
									<path class="st4" d="M60.4,54.9l2.8,2.2l8.7-2.2l-0.1-0.5l-8.4,2.1l-2.7-2.2C60.6,54.6,60.5,54.8,60.4,54.9z"/>
								</g>
							</g>
						</g>
						<g>
							<g>
								<g>
									<path class="st4" d="M49.9,46.3c0.1-0.1,0.3-0.2,0.4-0.3L44.1,41l-14.3-8.8l-0.3,0.5l14.3,8.8L49.9,46.3z"/>
								</g>
							</g>
						</g>
					</g>
					<g>
						<g>
							<g>
								<g>
									<path class="st4" d="M40.7,61.6c0.2-0.1,0.4-0.1,0.6-0.2L34,56.6c-0.1,0.1-0.2,0.3-0.3,0.4L40.7,61.6z"/>
								</g>
							</g>
						</g>
						<g>
							<g>
								<g>
									<path class="st4" d="M46.9,25.8l-17.3,6.3l-0.1,0L18.9,46.9L18.5,47l3.7,2.5c0.1-0.1,0.2-0.3,0.2-0.4l-2.7-1.8l23.9-5.7
										L43.4,61c0.2,0,0.3-0.1,0.5-0.1l0.3-20l-24.5,5.8l10.1-14.1l16.8-6.2l10,18.7c0.3,0.1,0.5,0.2,0.8,0.3L46.9,25.8z"/>
								</g>
							</g>
						</g>
					</g>
					<g>
						<g>
							<g>
								<g>
									<path class="st4" d="M41.7,66.2l1.1-2c-0.1-0.1-0.2-0.2-0.4-0.3l-1.1,1.9C41.4,66,41.6,66.1,41.7,66.2z"/>
								</g>
							</g>
						</g>
						<g>
							<g>
								<g>
									<path class="st4" d="M16.3,64.7l-4.1-1.1l-6.1,6.2c0.1,0.1,0.2,0.3,0.3,0.4l6-6.1l4.5,1.2C16.7,65.1,16.5,64.9,16.3,64.7z"
										/>
								</g>
							</g>
						</g>
					</g>
					<g>
						<g>
							<g>
								<path class="st4" d="M14.5,57.7c0.2,0.1,0.3,0.1,0.5,0.2L19.4,47l-6.7-6.8c-0.1,0.2-0.1,0.4-0.2,0.5l6.3,6.4L14.5,57.7z"/>
							</g>
						</g>
					</g>
					<g>
						<g>
							<g>
								<path class="st4" d="M12.9,61.7L12,63.5l-9.4-7.6c0,0.2-0.1,0.4-0.1,0.6l9.9,7.9l1-2.4C13.2,61.9,13,61.8,12.9,61.7z"/>
							</g>
						</g>
					</g>
				</g>
				<g>
					<g>
						<g>
							<g>
								<path class="st5" d="M72.1,23.4c-14.5,0-26.3,11.8-26.3,26.3c0,3.8,0.8,7.4,2.2,10.7c1.9-0.2,4.1-0.3,6.7-0.3
									c13.2,0,15.9,2.7,15.9,2.7s-8.3,1-8.3,7.7c0,1,0,2.2,0,3.6c2.9,1.1,6,1.8,9.2,1.9c-0.5-2.7-1.9-3.8-4.7-5.6
									c-0.6-0.3-1.4-0.6-2.5-0.8c0.8-3.3,4.7-5.3,8.5-6.6c11.6-1.1,20-4.7,24.9-7.4c0.4-1.9,0.7-3.8,0.7-5.8
									C98.4,35.2,86.6,23.4,72.1,23.4z M54.3,58.6c-3.8,0-6.9-3.1-6.9-6.9s3.1-6.9,6.9-6.9c3.8,0,6.9,3.1,6.9,6.9
									S58.2,58.6,54.3,58.6z M79.7,59.8c-3.8,0-6.9-3.1-6.9-6.9c0-3.8,3.1-6.9,6.9-6.9c3.8,0,6.9,3.1,6.9,6.9
									C86.7,56.7,83.6,59.8,79.7,59.8z"/>
							</g>
						</g>
					</g>
				</g>
				<g class="st3">
					<g>
						<g>
							<g>
								<g>
									<circle class="st4" cx="84.6" cy="34.7" r="1.8"/>
								</g>
							</g>
						</g>
					</g>
					<g>
						<g>
							<g>
								<g>
									<circle class="st4" cx="95.1" cy="49.5" r="1.8"/>
								</g>
							</g>
						</g>
					</g>
					<g>
						<g>
							<g>
								<g>
									<circle class="st4" cx="70.3" cy="43.9" r="1.8"/>
								</g>
							</g>
						</g>
					</g>
					<g>
						<g>
							<g>
								<g>
									<circle class="st4" cx="67.4" cy="28.4" r="2"/>
								</g>
							</g>
						</g>
					</g>
					<g>
						<g>
							<g>
								<g>
									<circle class="st4" cx="60.4" cy="42" r="2.1"/>
								</g>
							</g>
						</g>
					</g>
					<g>
						<g>
							<g>
								<g>
									<circle class="st4" cx="101.9" cy="66.2" r="1.9"/>
								</g>
							</g>
						</g>
					</g>
					<g>
						<g>
							<g>
								<path class="st4" d="M95.6,37.9l-10.7-3.4l1.4-7c-0.2-0.1-0.3-0.2-0.5-0.3l-1.6,7.6l0.2,0.1l11.4,3.6
									C95.8,38.3,95.7,38.1,95.6,37.9z"/>
							</g>
						</g>
					</g>
					<g>
						<g>
							<g>
								<g>
									<path class="st4" d="M97.8,55.5l-2.4-5.9l2.8-2.8c0-0.2-0.1-0.4-0.1-0.7l-3.3,3.4l2.6,6.3C97.5,55.6,97.6,55.6,97.8,55.5z"
										/>
								</g>
							</g>
						</g>
						<g>
							<g>
								<g>
									<path class="st4" d="M106.8,59.1l-4.8,6.6l-3-7.5c-0.1,0.1-0.3,0.3-0.4,0.4l3.3,8.1l4.9-6.7c0-0.2,0-0.4,0-0.6
										C106.8,59.3,106.8,59.2,106.8,59.1z"/>
								</g>
							</g>
						</g>
					</g>
					<g>
						<g>
							<g>
								<g>
									<path class="st4" d="M61.2,51.2l9.2-7.5l14.3-8.8l-0.3-0.5l-14.3,8.8l-8.9,7.3C61.2,50.8,61.2,51,61.2,51.2z"/>
								</g>
							</g>
						</g>
						<g>
							<g>
								<g>
									<path class="st4" d="M52.5,58.3c-0.2-0.1-0.4-0.1-0.6-0.2l-1,0.8l0.1,0.6L52.5,58.3z"/>
								</g>
							</g>
						</g>
					</g>
					<g>
						<g>
							<g>
								<path class="st4" d="M66.7,23.9c-0.2,0-0.3,0.1-0.5,0.1l3.7,19.2l-22.5-2.8c-0.1,0.2-0.1,0.3-0.2,0.5l23.3,2.9L66.7,23.9z"
									/>
							</g>
						</g>
					</g>
					<g>
						<g>
							<g>
								<path class="st4" d="M80.7,59.7L77,62.4c0.4-0.1,0.8-0.1,1.2-0.2l3.8-2.8C81.5,59.6,81.1,59.7,80.7,59.7z"/>
							</g>
						</g>
					</g>
					<g>
						<g>
							<g>
								<path class="st4" d="M102,65.9L89,69.5c-0.1,0.2-0.1,0.4-0.2,0.6l12.9-3.6l2.2,2.3c0.1-0.2,0.2-0.3,0.3-0.5L102,65.9z"/>
							</g>
						</g>
					</g>
					<g>
						<g>
							<g>
								<g>
									<path class="st4" d="M85.3,56.9l10.4-7.6l-0.5-0.1L84.7,34.5l-0.1,0l-17.3-6.3l-9.4,17.6c0.2,0.1,0.3,0.2,0.4,0.3l9.2-17.2
										l16.8,6.2L94.4,49L70,43.2v19.2c0.3,0.2,0.4,0.3,0.5,0.3V43.9l8.7,2.1c0.2,0,0.4,0,0.5,0c1.3,0,2.6,0.4,3.6,1l11.1,2.6
										L86,55.8C85.8,56.2,85.6,56.6,85.3,56.9z"/>
								</g>
							</g>
						</g>
						<g>
							<g>
								<g>
									<path class="st4" d="M64.6,65.4l1.9,0.8c0.1-0.1,0.3-0.3,0.5-0.4L65,65C64.9,65.2,64.7,65.3,64.6,65.4z"/>
								</g>
							</g>
						</g>
						<g>
							<g>
								<g>
									<path class="st4" d="M51.4,57.9l-0.8,1.5l1.7,0.7c0.4,0,0.8,0,1.3,0l-2.2-0.9l0.5-1C51.7,58,51.5,58,51.4,57.9z"/>
								</g>
							</g>
						</g>
						<g>
							<g>
								<g>
									<path class="st4" d="M70,62.9v1.2c0.2-0.1,0.4-0.2,0.5-0.2v-1C70.4,62.8,70.2,62.9,70,62.9z"/>
								</g>
							</g>
						</g>
					</g>
					<g>
						<g>
							<g>
								<path class="st4" d="M53.8,58.9c0-0.1,0-0.2,0-0.3c-1.7-0.1-3.2-0.9-4.3-2c-0.8,0.5-1.3,1.4-1.3,2.4c0,0.5,0.1,1,0.4,1.4
									c1.5-0.1,3.1-0.2,5-0.2C53.7,59.7,53.8,59.3,53.8,58.9z"/>
							</g>
						</g>
					</g>
				</g>
				<g class="st6">
					<g>
						<g>
							<g>
								<path class="st7" d="M54.7,60.1c2.5,0,4.7,0.1,6.5,0.3c1.4-3.3,2.2-6.9,2.2-10.6c0-7.8-3.4-14.8-8.8-19.7
									c-5.4,4.8-8.8,11.8-8.8,19.7c0,3.8,0.8,7.4,2.3,10.7C49.9,60.2,52.1,60.1,54.7,60.1z M54.3,44.7c3.8,0,6.9,3.1,6.9,6.9
									s-3.1,6.9-6.9,6.9c-3.8,0-6.9-3.1-6.9-6.9S50.5,44.7,54.3,44.7z"/>
							</g>
						</g>
					</g>
				</g>
				<g>
					<g class="st8">
						<g>
							<g>
								<g>
									<path class="st9" d="M18.4,68c-0.8-1.8-2-3.6-3.9-5.1C15.6,64.8,16.9,66.5,18.4,68z"/>
								</g>
							</g>
						</g>
					</g>
				</g>
				<g>
					<g>
						<g>
							<g>
								<circle class="st4" cx="54.3" cy="51.6" r="6.9"/>
							</g>
						</g>
					</g>
				</g>
				<g>
					<g>
						<g>
							<circle class="st4" cx="79.7" cy="52.9" r="6.9"/>
						</g>
					</g>
				</g>
				<g>
					<g>
						<g>
							<path class="st4" d="M72.9,63c-3.9,1.3-7.8,3.3-8.5,6.6c1.1,0.2,2,0.5,2.5,0.8c2.8,1.7,4.2,2.9,4.7,5.6c0.2,0,0.4,0,0.6,0
								c3.2,0,6.2-0.6,9.1-1.6c2.1,1.2,4.5,2,7.1,2.2v-1.4c0,0-0.6-7.7,5.4-12.4c6-4.6,7.1-6.5,9-10.5C102.7,52.3,92.2,61,72.9,63z"
								/>
						</g>
					</g>
				</g>
				<g>
					<g>
						<g>
							<path class="st4" d="M46.1,74.4c3.2-1.1,6.1-2.9,8.6-5.1c2.2,2,4.8,3.6,7.7,4.7c0-1.4,0-2.6,0-3.6c0-6.7,8.3-7.7,8.3-7.7
								s-2.7-2.7-15.9-2.7S38,62.8,38,62.8c5.1,0,7,3.5,7.7,6.1c0,0.1,0,0.1,0,0.1s0,0,0.1,0c0.4,1.5,0.4,2.7,0.4,2.7V74.4z"/>
						</g>
					</g>
				</g>
				<g class="st8">
					<g>
						<g>
							<g>
								<path class="st9" d="M35.5,63C35.5,63,35.5,63,35.5,63c0.3-1.2,0.5-2.5,0.5-3.9c0-1.9-0.3-3.6-0.9-5.3c-0.5,3.4-3.4,6-6.9,6
									c-3.8,0-6.9-3.1-6.9-6.9c0-3.8,3.1-6.9,6.9-6.9c0.5,0,1,0.1,1.5,0.2c-2.9-2.4-6.6-3.8-10.6-3.8c-2.7,0-5.3,0.7-7.6,1.8
									c-0.4,1.8-0.6,3.6-0.6,5.5c0,2.3,0.3,4.5,0.9,6.6C16.8,58.9,24.8,62,35.5,63z"/>
							</g>
						</g>
					</g>
				</g>
				<g>
					<g>
						<g>
							<g>
								<circle class="st4" cx="28.2" cy="52.9" r="6.9"/>
							</g>
						</g>
					</g>
					<g>
						<g>
							<g>
								<path class="st4" d="M35.5,63C15.9,61.2,5.3,52.3,5.3,52.3c1.9,3.9,3,5.8,9,10.5c6,4.6,5.4,12.4,5.4,12.4V76
									c2.7-0.1,5.2-0.8,7.4-2c2.9,1.2,6,1.9,9.3,2c0.5-2.7,1.9-3.8,4.7-5.6c0.6-0.4,1.6-0.7,2.8-0.9C43.1,66.3,39.3,64.3,35.5,63z
									"/>
							</g>
						</g>
					</g>
				</g>
			</g>
			<g class="st10">
				<g>
					<g>
						<g>
							<path class="st11" d="M72.9,63c11.6-1.1,20-4.7,24.9-7.4c0.4-1.9,0.7-3.8,0.7-5.8c0-1.8-0.2-3.6-0.5-5.3
								c-2.4-1.3-5.2-2.1-8.2-2.1c-4,0-7.7,1.4-10.6,3.7c0.2,0,0.5,0,0.7,0c3.8,0,6.9,3.1,6.9,6.9c0,3.8-3.1,6.9-6.9,6.9
								c-3.1,0-5.8-2.1-6.6-5c-0.4,1.5-0.6,3-0.6,4.6C72.5,60.7,72.6,61.8,72.9,63C72.8,63,72.8,63,72.9,63z"/>
						</g>
					</g>
				</g>
			</g>
			<g>
				<g>
					<g>
						<path class="st5" d="M93.7,62.7c-2.7,2.1-4.1,4.8-4.8,7.1c2.9-2.4,5.2-5.4,6.9-8.8C95.1,61.6,94.4,62.1,93.7,62.7z"/>
					</g>
				</g>
			</g>
			<g class="st10">
				<g class="st12">
					<g>
						<g>
							<g>
								<path class="st11" d="M93.7,62.7c-2.7,2.1-4.1,4.8-4.8,7.1c2.9-2.4,5.2-5.4,6.9-8.8C95.1,61.6,94.4,62.1,93.7,62.7z"/>
							</g>
						</g>
					</g>
				</g>
			</g>
		</g>
	</g>
	<g>
		<g>
			<g>
				<path class="st2" d="M137,31.5c0,0.1,0,0.3-0.1,0.4l-6.8,10.7l6.8,11.4c0.1,0.1,0.1,0.2,0.1,0.3c0,0.2-0.1,0.3-0.4,0.3h-4.9
					c-0.2,0-0.3,0-0.4-0.1c-0.1-0.1-0.2-0.2-0.2-0.3l-5.8-10.4V54c0,0.2-0.1,0.3-0.2,0.4c-0.1,0.1-0.2,0.2-0.4,0.2H121
					c-0.2,0-0.3-0.1-0.4-0.2c-0.1-0.1-0.2-0.3-0.2-0.4V31.7c0-0.2,0.1-0.3,0.2-0.4c0.1-0.1,0.2-0.2,0.4-0.2h3.7
					c0.2,0,0.3,0.1,0.4,0.2c0.1,0.1,0.2,0.3,0.2,0.4v10.1l6.3-10.3c0.1-0.3,0.3-0.4,0.6-0.4h4.4C136.8,31.1,137,31.2,137,31.5z"/>
			</g>
			<g>
				<path class="st2" d="M154.6,44.8c0,1.8-0.2,3.4-0.7,4.7c-0.4,1.3-1,2.3-1.8,3.2c-0.8,0.8-1.6,1.4-2.7,1.8
					c-1,0.4-2.1,0.6-3.3,0.6c-1.2,0-2.3-0.2-3.3-0.6c-1-0.4-1.9-1-2.7-1.8c-0.8-0.8-1.4-1.9-1.8-3.2c-0.4-1.3-0.7-2.8-0.7-4.7V41
					c0-1.8,0.2-3.4,0.7-4.7c0.4-1.3,1-2.3,1.8-3.2c0.8-0.8,1.7-1.4,2.7-1.8c1-0.4,2.1-0.6,3.3-0.6c1.2,0,2.3,0.2,3.3,0.6
					c1,0.4,1.9,1,2.7,1.8c0.8,0.8,1.4,1.9,1.8,3.2c0.4,1.3,0.7,2.8,0.7,4.7V44.8z M149.7,41c0-1.9-0.3-3.3-0.9-4.2
					c-0.6-0.8-1.5-1.3-2.7-1.3c-1.2,0-2.1,0.4-2.6,1.3c-0.6,0.8-0.9,2.2-0.9,4.2v3.8c0,1.9,0.3,3.3,0.9,4.2c0.6,0.8,1.5,1.3,2.6,1.3
					c1.2,0,2.1-0.4,2.7-1.3c0.6-0.8,0.9-2.2,0.9-4.2V41z"/>
			</g>
			<g>
				<path class="st2" d="M177.2,54.5c-0.1,0.1-0.2,0.1-0.3,0.1h-3.8c-0.1,0-0.2-0.1-0.3-0.2c-0.1-0.1-0.1-0.3-0.1-0.4V40.8
					c0-0.2,0-0.3-0.1-0.3c-0.1,0-0.2,0.1-0.2,0.2l-2.6,5.2c-0.2,0.4-0.5,0.5-0.9,0.5h-2.3c-0.4,0-0.7-0.2-0.9-0.5l-2.6-5.2
					c-0.1-0.1-0.2-0.2-0.2-0.2c-0.1,0-0.1,0.1-0.1,0.3V54c0,0.2,0,0.3-0.1,0.4c-0.1,0.1-0.2,0.2-0.3,0.2h-3.8c-0.1,0-0.2,0-0.3-0.1
					c-0.1-0.1-0.2-0.2-0.2-0.3v-22c0-0.3,0.1-0.6,0.3-0.8c0.2-0.2,0.4-0.3,0.7-0.3h2.7c0.6,0,1,0.3,1.3,0.9l4.4,9
					c0.1,0.3,0.2,0.4,0.3,0.4c0.1,0,0.2-0.1,0.3-0.4l4.4-9c0.3-0.6,0.7-0.9,1.3-0.9h2.7c0.3,0,0.6,0.1,0.7,0.3
					c0.2,0.2,0.3,0.5,0.3,0.8v22C177.4,54.4,177.3,54.5,177.2,54.5z"/>
			</g>
			<g>
				<path class="st2" d="M197.1,50.3c-0.4,1.2-1,2.1-1.8,2.8c-0.7,0.7-1.6,1.2-2.6,1.4c-1,0.3-2.1,0.4-3.2,0.4
					c-1.1,0-2.2-0.1-3.2-0.4c-1-0.3-1.9-0.8-2.6-1.4c-0.7-0.7-1.3-1.6-1.8-2.8c-0.4-1.2-0.6-2.7-0.6-4.5V31.7c0-0.2,0.1-0.3,0.2-0.4
					c0.1-0.1,0.2-0.2,0.4-0.2h3.7c0.2,0,0.3,0.1,0.4,0.2c0.1,0.1,0.2,0.3,0.2,0.4v14.1c0,0.8,0.1,1.5,0.2,2.1
					c0.1,0.6,0.3,1.1,0.5,1.4c0.3,0.4,0.6,0.6,1,0.8c0.4,0.2,1,0.3,1.6,0.3c0.6,0,1.2-0.1,1.6-0.3c0.4-0.2,0.8-0.5,1-0.8
					c0.3-0.4,0.4-0.8,0.6-1.4c0.1-0.6,0.2-1.3,0.2-2.1V31.7c0-0.2,0.1-0.3,0.2-0.4c0.1-0.1,0.2-0.2,0.4-0.2h3.7
					c0.2,0,0.3,0.1,0.4,0.2c0.1,0.1,0.2,0.3,0.2,0.4v14.1C197.7,47.6,197.5,49.1,197.1,50.3z"/>
			</g>
			<g>
				<path class="st2" d="M218.1,54.3c-0.2,0.2-0.5,0.3-0.8,0.3h-2.8c-0.3,0-0.6-0.1-0.8-0.2c-0.2-0.1-0.5-0.4-0.7-0.8l-6.5-12.5
					c-0.1-0.2-0.2-0.3-0.3-0.3c-0.1,0-0.1,0.1-0.1,0.3V54c0,0.2-0.1,0.3-0.2,0.4c-0.1,0.1-0.2,0.2-0.4,0.2h-3.4
					c-0.2,0-0.3-0.1-0.4-0.2c-0.1-0.1-0.2-0.3-0.2-0.4V32.3c0-0.3,0.1-0.6,0.3-0.9c0.2-0.2,0.5-0.3,0.8-0.3h2.9
					c0.3,0,0.5,0.1,0.7,0.2s0.3,0.4,0.5,0.7l6.8,13c0.1,0.2,0.2,0.3,0.2,0.3c0.1,0,0.1-0.1,0.1-0.3V31.7c0-0.2,0.1-0.3,0.2-0.4
					c0.1-0.1,0.2-0.2,0.4-0.2h3.4c0.2,0,0.3,0.1,0.4,0.2c0.1,0.1,0.2,0.3,0.2,0.4v21.7C218.4,53.8,218.3,54.1,218.1,54.3z"/>
			</g>
			<g>
				<path class="st2" d="M227.1,54.5c-0.1,0.1-0.2,0.2-0.4,0.2h-3.8c-0.2,0-0.3-0.1-0.4-0.2c-0.1-0.1-0.1-0.3-0.1-0.4V31.7
					c0-0.4,0.2-0.6,0.5-0.6h3.8c0.4,0,0.5,0.2,0.5,0.6V54C227.3,54.2,227.2,54.3,227.1,54.5z"/>
			</g>
			<g>
				<path class="st2" d="M245.1,35.4c-0.1,0.1-0.3,0.2-0.4,0.2h-4.6V54c0,0.2-0.1,0.3-0.2,0.4c-0.1,0.1-0.2,0.2-0.4,0.2h-3.7
					c-0.2,0-0.3-0.1-0.4-0.2c-0.1-0.1-0.2-0.3-0.2-0.4V35.6h-4.6c-0.2,0-0.3-0.1-0.4-0.2c-0.1-0.1-0.2-0.3-0.2-0.4v-3.3
					c0-0.2,0.1-0.3,0.2-0.4c0.1-0.1,0.2-0.2,0.4-0.2h14.1c0.2,0,0.3,0.1,0.4,0.2c0.1,0.1,0.2,0.3,0.2,0.4V35
					C245.3,35.1,245.2,35.3,245.1,35.4z"/>
			</g>
			<g>
				<path class="st2" d="M262.5,54.1c0,0.3-0.2,0.5-0.5,0.5h-4c-0.2,0-0.3-0.1-0.4-0.2c-0.1-0.1-0.2-0.2-0.2-0.4l-1-5.2h-5.8l-1,5.2
					c0,0.2-0.1,0.3-0.2,0.4c-0.1,0.1-0.2,0.2-0.4,0.2h-4c-0.3,0-0.5-0.2-0.5-0.5c0,0,0,0,0-0.1c0,0,0-0.1,0-0.1l4.2-19.6
					c0.2-0.8,0.4-1.4,0.7-1.8c0.3-0.5,0.7-0.8,1.1-1.1c0.4-0.2,0.9-0.4,1.4-0.5c0.5-0.1,1-0.1,1.5-0.1c0.5,0,1,0,1.5,0.1
					c0.5,0.1,0.9,0.2,1.4,0.5c0.4,0.2,0.8,0.6,1.1,1.1c0.3,0.5,0.6,1.1,0.7,1.8l4.2,19.6C262.5,54,262.5,54,262.5,54.1
					C262.5,54.1,262.5,54.1,262.5,54.1z M253.9,35.8c0-0.2-0.1-0.3-0.1-0.4c0-0.1-0.1-0.1-0.3-0.1c-0.2,0-0.3,0.2-0.4,0.5l-1.7,8.7
					h4.2L253.9,35.8z"/>
			</g>
			<g>
				<path class="st13" d="M268.6,49.4h-3.3c-0.2,0-0.3,0.1-0.4,0.2c-0.1,0.1-0.2,0.3-0.2,0.4v4c0,0.2,0.1,0.3,0.2,0.4
					c0.1,0.1,0.3,0.2,0.4,0.2h3.3c0.2,0,0.3-0.1,0.4-0.2c0.1-0.1,0.2-0.3,0.2-0.4v-4c0-0.2-0.1-0.3-0.2-0.4
					C268.9,49.5,268.8,49.4,268.6,49.4z"/>
				<path class="st13" d="M277.2,31.1h-3.8c-0.3,0-0.5,0.2-0.5,0.6V54c0,0.2,0,0.3,0.1,0.4c0.1,0.1,0.2,0.2,0.4,0.2h3.8
					c0.2,0,0.3-0.1,0.4-0.2c0.1-0.1,0.2-0.3,0.2-0.4V31.7C277.7,31.3,277.5,31.1,277.2,31.1z"/>
				<path class="st13" d="M297.1,36.5c-0.4-1.3-1-2.3-1.8-3.1c-0.8-0.8-1.7-1.5-2.8-1.9c-1.1-0.4-2.4-0.6-3.8-0.6
					c-0.6,0-1.2,0-1.8,0c-0.6,0-1.2,0.1-1.7,0.1c-0.5,0-1,0.1-1.5,0.1c-0.4,0.1-0.8,0.1-1.1,0.2c-0.3,0-0.5,0.1-0.6,0.3
					c-0.1,0.2-0.2,0.4-0.2,0.8v20.9c0,0.4,0.1,0.6,0.2,0.8c0.1,0.2,0.3,0.3,0.6,0.3c0.3,0.1,0.7,0.1,1.1,0.2
					c0.4,0.1,0.9,0.1,1.5,0.1c0.5,0,1.1,0.1,1.7,0.1s1.2,0,1.8,0c1.4,0,2.7-0.2,3.8-0.6c1.1-0.4,2.1-1,2.8-1.9
					c0.8-0.8,1.4-1.9,1.8-3.1c0.4-1.3,0.6-2.7,0.6-4.4v-4.1C297.7,39.2,297.5,37.7,297.1,36.5z M292.8,44.9c0,1.1-0.1,2-0.3,2.7
					c-0.2,0.7-0.5,1.3-0.9,1.7s-0.8,0.7-1.3,0.9c-0.5,0.2-1.1,0.2-1.7,0.2c-0.4,0-0.7,0-1.1,0c-0.4,0-0.7,0-0.9,0V35.5
					c0.2,0,0.5,0,0.9,0c0.4,0,0.8,0,1.1,0c0.6,0,1.2,0.1,1.7,0.2c0.5,0.2,1,0.4,1.3,0.9c0.4,0.4,0.7,1,0.9,1.7
					c0.2,0.7,0.3,1.6,0.3,2.7V44.9z"/>
			</g>
		</g>
		<g>
			<polygon class="st14" points="125.9,69 124.5,61.8 123.6,61.8 122.2,69 121,61.7 120,61.7 121.7,71.5 122.6,71.5 124,64.1 
				125.5,71.5 126.4,71.5 128,61.7 127,61.7 			"/>
			<path class="st14" d="M132.9,68l0-0.7c0-0.4,0-0.8,0-1.1c0-0.3-0.1-0.6-0.2-0.8c-0.1-0.3-0.2-0.5-0.3-0.6
				c-0.1-0.2-0.3-0.3-0.6-0.3c-0.2-0.1-0.5-0.1-0.8-0.1c-0.5,0-0.8,0.1-1.1,0.3c-0.3,0.2-0.5,0.5-0.7,0.9c-0.1,0.4-0.2,1-0.2,1.6
				v1.7c0,1,0.1,1.7,0.5,2.1c0.3,0.4,0.8,0.7,1.5,0.7c0.7,0,1.2-0.2,1.5-0.6c0.3-0.4,0.4-0.9,0.4-1.6V69h-1.1v0.6
				c0,0.5-0.1,0.8-0.2,1c-0.1,0.2-0.3,0.2-0.6,0.2c-0.3,0-0.6-0.1-0.7-0.4c-0.1-0.3-0.2-0.8-0.2-1.5V68H132.9z M131,65.2
				c0.1,0,0.3,0,0.4,0.1c0.1,0,0.2,0.1,0.2,0.2c0.1,0.1,0.1,0.2,0.1,0.3c0,0.2,0.1,0.3,0.1,0.5c0,0.2,0,0.4,0,0.6v0.5h-1.7v-0.3
				c0-0.7,0.1-1.2,0.2-1.4C130.4,65.3,130.7,65.2,131,65.2z"/>
			<path class="st14" d="M138,65.6c-0.1-0.3-0.2-0.5-0.3-0.7c-0.1-0.2-0.3-0.3-0.5-0.4c-0.2-0.1-0.5-0.2-0.7-0.2
				c-0.5,0-0.9,0.2-1.2,0.5v-3.1h-1.1v9.8h1.1v-0.4c0.3,0.3,0.7,0.5,1.1,0.5c0.3,0,0.5,0,0.7-0.1c0.2-0.1,0.4-0.2,0.5-0.4
				c0.1-0.2,0.2-0.4,0.3-0.6c0.1-0.3,0.1-0.5,0.2-0.8c0-0.3,0-0.6,0-1v-1.5c0-0.3,0-0.6,0-0.8C138.1,66.1,138.1,65.9,138,65.6z
				 M137.1,67.2v1.5c0,0.8-0.1,1.3-0.2,1.6c-0.1,0.3-0.3,0.4-0.6,0.4c-0.4,0-0.7-0.1-1-0.4v-4.6c0.3-0.3,0.6-0.5,1-0.5
				c0.3,0,0.5,0.1,0.6,0.4C137,66,137.1,66.5,137.1,67.2z"/>
			<path class="st14" d="M142.7,68.6c-0.1-0.2-0.2-0.3-0.4-0.4c-0.1-0.1-0.3-0.3-0.4-0.4l-1-0.9c-0.2-0.2-0.3-0.3-0.4-0.5
				c-0.1-0.1-0.1-0.3-0.1-0.5c0-0.2,0.1-0.4,0.2-0.5c0.1-0.1,0.3-0.2,0.6-0.2c0.3,0,0.5,0.1,0.6,0.3c0.1,0.2,0.2,0.5,0.3,1l0,0.1
				l0.8-0.3l0-0.1c0-0.6-0.2-1-0.5-1.4c-0.3-0.4-0.7-0.5-1.3-0.5c-0.5,0-1,0.1-1.3,0.4c-0.3,0.3-0.5,0.7-0.5,1.3
				c0,0.4,0.1,0.7,0.2,1c0.2,0.3,0.4,0.6,0.7,0.8l0.9,0.8c0.5,0.4,0.8,0.9,0.8,1.3v0c0,0.3-0.1,0.5-0.2,0.6
				c-0.2,0.2-0.4,0.2-0.6,0.2c-0.3,0-0.5-0.1-0.7-0.3c-0.2-0.2-0.3-0.6-0.3-1.1l0-0.1l-1,0.3l0,0.1c0,0.6,0.2,1.1,0.6,1.5
				c0.3,0.4,0.8,0.6,1.4,0.6c0.6,0,1-0.2,1.4-0.5c0.3-0.3,0.5-0.7,0.5-1.3c0-0.2,0-0.5-0.1-0.7C142.9,69,142.8,68.8,142.7,68.6z"/>
			<rect x="144.3" y="62.3" class="st14" width="1.1" height="1.4"/>
			<rect x="144.3" y="64.4" class="st14" width="1.1" height="7.1"/>
			<path class="st14" d="M148.4,62.3h-1.1v2.1h-0.8v0.8h0.8V70c0,0.5,0.1,0.9,0.3,1.2c0.2,0.3,0.6,0.4,1.1,0.4c0.2,0,0.5,0,0.8-0.1
				l0.1,0v-0.9l-0.1,0c-0.2,0-0.3,0-0.5,0c-0.2,0-0.3,0-0.4-0.1c0-0.1-0.1-0.3-0.1-0.7v-4.7h1.1v-0.8h-1.1V62.3z"/>
			<path class="st14" d="M154.4,68l0-0.7c0-0.4,0-0.8,0-1.1c0-0.3-0.1-0.6-0.2-0.8c-0.1-0.3-0.2-0.5-0.3-0.6
				c-0.1-0.2-0.3-0.3-0.6-0.3c-0.2-0.1-0.5-0.1-0.8-0.1c-0.5,0-0.8,0.1-1.1,0.3c-0.3,0.2-0.5,0.5-0.7,0.9c-0.1,0.4-0.2,1-0.2,1.6
				v1.7c0,1,0.1,1.7,0.5,2.1c0.3,0.4,0.8,0.7,1.5,0.7c0.7,0,1.2-0.2,1.5-0.6c0.3-0.4,0.4-0.9,0.4-1.6V69h-1.1v0.6
				c0,0.5-0.1,0.8-0.2,1c-0.1,0.2-0.3,0.2-0.6,0.2c-0.3,0-0.6-0.1-0.7-0.4c-0.1-0.3-0.2-0.8-0.2-1.5V68H154.4z M152.5,65.2
				c0.1,0,0.3,0,0.4,0.1c0.1,0,0.2,0.1,0.2,0.2c0.1,0.1,0.1,0.2,0.1,0.3c0,0.2,0.1,0.3,0.1,0.5c0,0.2,0,0.4,0,0.6v0.5h-1.7v-0.3
				c0-0.7,0.1-1.2,0.2-1.4C151.9,65.3,152.1,65.2,152.5,65.2z"/>
			<polygon class="st14" points="163.3,61.7 162.2,61.7 159.8,66.4 159.8,61.7 158.6,61.7 158.6,71.5 159.8,71.5 159.8,67.9 
				160.4,66.7 162.5,71.5 163.7,71.5 161.2,65.9 			"/>
			<path class="st14" d="M166.3,64.3c-0.7,0-1.2,0.2-1.5,0.7c-0.3,0.4-0.4,1.1-0.4,2v1.9c0,0.4,0,0.8,0.1,1.1
				c0.1,0.3,0.2,0.6,0.3,0.8c0.1,0.2,0.4,0.4,0.6,0.6c0.3,0.1,0.6,0.2,0.9,0.2c0.4,0,0.7-0.1,0.9-0.2v0c0.3-0.1,0.5-0.3,0.6-0.6
				c0.1-0.2,0.2-0.5,0.3-0.8c0.1-0.3,0.1-0.7,0.1-1.1V67c0-0.9-0.1-1.6-0.4-2C167.5,64.6,167,64.3,166.3,64.3z M166.9,70.5
				c-0.1,0.1-0.1,0.2-0.2,0.2c-0.1,0.1-0.2,0.1-0.4,0.1c-0.1,0-0.2,0-0.3-0.1c-0.1,0-0.2-0.1-0.2-0.2c-0.1-0.1-0.1-0.2-0.2-0.3
				c0-0.1-0.1-0.2-0.1-0.4c0-0.2,0-0.3,0-0.4c0-0.1,0-0.3,0-0.5v-2c0-0.2,0-0.4,0-0.5c0-0.1,0-0.3,0-0.4c0-0.1,0-0.3,0.1-0.4
				c0-0.1,0.1-0.2,0.2-0.3c0.1-0.1,0.1-0.1,0.2-0.2c0.1,0,0.2-0.1,0.3-0.1c0.2,0,0.3,0,0.4,0.1c0.1,0.1,0.2,0.1,0.2,0.2
				c0.1,0.1,0.1,0.2,0.1,0.4c0,0.2,0.1,0.3,0.1,0.5c0,0.2,0,0.4,0,0.6v2c0,0.3,0,0.5,0,0.6c0,0.2,0,0.3-0.1,0.5
				C167,70.3,166.9,70.4,166.9,70.5z"/>
			<path class="st14" d="M174.9,64.3c-0.6,0-1.2,0.3-1.6,0.8c-0.2-0.5-0.6-0.8-1.1-0.8c-0.6,0-1.1,0.2-1.5,0.6v-0.5h-1v7.1h1v-5.8
				c0.4-0.4,0.8-0.6,1.2-0.6c0.2,0,0.3,0.1,0.4,0.2c0.1,0.1,0.2,0.3,0.2,0.7v5.5h1V66c0-0.1,0-0.1,0-0.2c0.4-0.4,0.8-0.6,1.2-0.6
				c0.2,0,0.3,0.1,0.4,0.2c0.1,0.1,0.1,0.3,0.1,0.7v5.5h1.1V66c0-0.6-0.1-1-0.4-1.3C175.5,64.5,175.2,64.3,174.9,64.3z"/>
			<path class="st14" d="M180.2,70.1c-0.4,0.4-0.8,0.6-1.1,0.6c-0.2,0-0.3-0.1-0.4-0.2c-0.1-0.1-0.1-0.4-0.1-0.7v-5.4h-1.1v5.6
				c0,0.5,0.1,0.9,0.3,1.2c0.2,0.3,0.5,0.4,0.9,0.4c0.6,0,1.1-0.2,1.6-0.7v0.6h1.1v-7.1h-1.1V70.1z"/>
			<path class="st14" d="M185.4,64.3c-0.5,0-1.1,0.2-1.5,0.7v-0.6h-1.1v7.1h1.1v-5.7c0.4-0.4,0.7-0.6,1.1-0.6c0.2,0,0.3,0.1,0.4,0.2
				c0.1,0.1,0.1,0.4,0.1,0.7v5.4h1.1v-5.6c0-0.5-0.1-0.9-0.3-1.1C186.1,64.5,185.8,64.3,185.4,64.3z"/>
			<rect x="188.1" y="64.4" class="st14" width="1.1" height="7.1"/>
			<rect x="188.1" y="62.3" class="st14" width="1.1" height="1.4"/>
			<path class="st14" d="M192.3,62.3h-1.1v2.1h-0.8v0.8h0.8V70c0,0.5,0.1,0.9,0.3,1.2c0.2,0.3,0.6,0.4,1.1,0.4c0.2,0,0.5,0,0.8-0.1
				l0.1,0v-0.9l-0.1,0c-0.2,0-0.3,0-0.5,0c-0.2,0-0.3,0-0.4-0.1c0-0.1-0.1-0.3-0.1-0.7v-4.7h1.1v-0.8h-1.1V62.3z"/>
			<path class="st14" d="M198.1,70.1v-3.3c0-0.8-0.1-1.4-0.4-1.8c-0.3-0.4-0.7-0.6-1.4-0.6c-0.6,0-1.1,0.2-1.4,0.5
				c-0.3,0.3-0.5,0.8-0.5,1.5c0,0,0,0.1,0,0.2v0.1l1.1,0v-0.4c0-0.5,0.1-1.1,0.8-1.1c0.3,0,0.5,0.1,0.6,0.3c0.1,0.2,0.2,0.6,0.2,1.3
				v0.4c-0.3,0.2-0.6,0.3-0.8,0.4c-0.2,0.1-0.5,0.2-0.7,0.4c-0.2,0.1-0.4,0.3-0.6,0.4c-0.1,0.1-0.3,0.3-0.4,0.4
				c-0.1,0.2-0.2,0.4-0.2,0.5c0,0.2-0.1,0.4-0.1,0.6c0,0.5,0.1,0.9,0.4,1.2c0.3,0.3,0.6,0.5,1.1,0.5c0.4,0,0.7-0.1,1-0.3
				c0.2-0.1,0.3-0.3,0.4-0.4l0.1,0.7h1l0-0.1C198.2,71.1,198.1,70.6,198.1,70.1z M197,70c-0.1,0.2-0.2,0.4-0.4,0.5
				c-0.2,0.1-0.4,0.2-0.6,0.2c-0.2,0-0.4-0.1-0.5-0.2c-0.1-0.1-0.2-0.4-0.2-0.7c0-0.1,0-0.2,0-0.3c0-0.1,0-0.2,0.1-0.2
				c0-0.1,0.1-0.2,0.1-0.2c0-0.1,0.1-0.1,0.2-0.2c0.1-0.1,0.2-0.1,0.2-0.2c0.1-0.1,0.2-0.1,0.3-0.2c0.1-0.1,0.3-0.1,0.4-0.2
				c0.1,0,0.2-0.1,0.4-0.2V70z"/>
			<path class="st14" d="M202.7,68.6c-0.1-0.2-0.2-0.3-0.4-0.4c-0.1-0.1-0.3-0.3-0.4-0.4l-1-0.9c-0.2-0.2-0.3-0.3-0.4-0.5
				c-0.1-0.1-0.1-0.3-0.1-0.5c0-0.2,0.1-0.4,0.2-0.5c0.1-0.1,0.3-0.2,0.6-0.2c0.3,0,0.5,0.1,0.6,0.3c0.1,0.2,0.2,0.5,0.3,1l0,0.1
				l0.8-0.3l0-0.1c0-0.6-0.2-1-0.5-1.4c-0.3-0.4-0.7-0.5-1.3-0.5c-0.5,0-1,0.1-1.3,0.4c-0.3,0.3-0.5,0.7-0.5,1.3
				c0,0.4,0.1,0.7,0.2,1c0.2,0.3,0.4,0.6,0.7,0.8l0.9,0.8c0.5,0.4,0.8,0.9,0.8,1.3v0c0,0.3-0.1,0.5-0.2,0.6
				c-0.2,0.2-0.4,0.2-0.6,0.2c-0.3,0-0.5-0.1-0.7-0.3c-0.2-0.2-0.3-0.6-0.3-1.1l0-0.1l-1,0.3l0,0.1c0,0.6,0.2,1.1,0.6,1.5
				c0.3,0.4,0.8,0.6,1.4,0.6c0.6,0,1-0.2,1.4-0.5c0.3-0.3,0.5-0.7,0.5-1.3c0-0.2,0-0.5-0.1-0.7C202.9,69,202.8,68.8,202.7,68.6z"/>
			<rect x="207.2" y="61.7" class="st14" width="1.1" height="9.8"/>
			<path class="st14" d="M212.6,64.3c-0.5,0-1.1,0.2-1.5,0.7v-0.6H210v7.1h1.1v-5.7c0.4-0.4,0.7-0.6,1.1-0.6c0.2,0,0.3,0.1,0.4,0.2
				c0.1,0.1,0.1,0.4,0.1,0.7v5.4h1.1v-5.6c0-0.5-0.1-0.9-0.3-1.1C213.3,64.5,213,64.3,212.6,64.3z"/>
			<path class="st14" d="M217.9,64.8c-0.3-0.3-0.7-0.4-1.1-0.4c-0.3,0-0.5,0-0.7,0.1c-0.2,0.1-0.4,0.2-0.5,0.4
				c-0.1,0.2-0.2,0.4-0.3,0.7c-0.1,0.3-0.1,0.5-0.2,0.8c0,0.3,0,0.6,0,1v1.3c0,1.1,0.1,1.8,0.4,2.3c0.3,0.5,0.7,0.7,1.4,0.7h0h0
				c0.4,0,0.7-0.1,1.1-0.4v0.3h1.1v-9.8h-1.1V64.8z M217,65.3c0.3,0,0.6,0.1,0.9,0.4v4.7c-0.3,0.3-0.6,0.4-0.9,0.4
				c-0.3,0-0.5-0.1-0.7-0.4c-0.1-0.3-0.2-0.8-0.2-1.6v-1.6c0-0.7,0.1-1.2,0.2-1.5C216.5,65.4,216.7,65.3,217,65.3z"/>
			<path class="st14" d="M222.3,64.3c-0.7,0-1.2,0.2-1.5,0.7c-0.3,0.4-0.4,1.1-0.4,2v1.9c0,0.4,0,0.8,0.1,1.1
				c0.1,0.3,0.2,0.6,0.3,0.8c0.1,0.2,0.4,0.4,0.6,0.6c0.3,0.1,0.6,0.2,0.9,0.2c0.4,0,0.7-0.1,0.9-0.2v0c0.3-0.1,0.5-0.3,0.6-0.6
				c0.1-0.2,0.2-0.5,0.3-0.8c0.1-0.3,0.1-0.7,0.1-1.1V67c0-0.9-0.1-1.6-0.4-2C223.5,64.6,223,64.3,222.3,64.3z M222.9,70.5
				c-0.1,0.1-0.1,0.2-0.2,0.2c-0.1,0.1-0.2,0.1-0.4,0.1c-0.1,0-0.2,0-0.3-0.1c-0.1,0-0.2-0.1-0.2-0.2c-0.1-0.1-0.1-0.2-0.2-0.3
				c0-0.1-0.1-0.2-0.1-0.4c0-0.2,0-0.3,0-0.4c0-0.1,0-0.3,0-0.5v-2c0-0.2,0-0.4,0-0.5c0-0.1,0-0.3,0-0.4c0-0.1,0-0.3,0.1-0.4
				c0-0.1,0.1-0.2,0.2-0.3c0.1-0.1,0.1-0.1,0.2-0.2c0.1,0,0.2-0.1,0.3-0.1c0.2,0,0.3,0,0.4,0.1c0.1,0.1,0.2,0.1,0.2,0.2
				c0.1,0.1,0.1,0.2,0.1,0.4c0,0.2,0.1,0.3,0.1,0.5c0,0.2,0,0.4,0,0.6v2c0,0.3,0,0.5,0,0.6c0,0.2,0,0.3-0.1,0.5
				C223,70.3,223,70.4,222.9,70.5z"/>
			<path class="st14" d="M228.2,64.3c-0.5,0-1.1,0.2-1.5,0.7v-0.6h-1.1v7.1h1.1v-5.7c0.4-0.4,0.7-0.6,1.1-0.6c0.2,0,0.3,0.1,0.4,0.2
				c0.1,0.1,0.1,0.4,0.1,0.7v5.4h1.1v-5.6c0-0.5-0.1-0.9-0.3-1.1C228.9,64.5,228.6,64.3,228.2,64.3z"/>
			<path class="st14" d="M234.5,68l0-0.7c0-0.4,0-0.8,0-1.1c0-0.3-0.1-0.6-0.2-0.8c-0.1-0.3-0.2-0.5-0.3-0.6
				c-0.1-0.2-0.3-0.3-0.6-0.3c-0.2-0.1-0.5-0.1-0.8-0.1c-0.5,0-0.8,0.1-1.1,0.3c-0.3,0.2-0.5,0.5-0.7,0.9c-0.1,0.4-0.2,1-0.2,1.6
				v1.7c0,1,0.1,1.7,0.5,2.1c0.3,0.4,0.8,0.7,1.5,0.7c0.7,0,1.2-0.2,1.5-0.6c0.3-0.4,0.4-0.9,0.4-1.6V69h-1.1v0.6
				c0,0.5-0.1,0.8-0.2,1c-0.1,0.2-0.3,0.2-0.6,0.2c-0.3,0-0.6-0.1-0.7-0.4c-0.1-0.3-0.2-0.8-0.2-1.5V68H234.5z M232.6,65.2
				c0.1,0,0.3,0,0.4,0.1c0.1,0,0.2,0.1,0.2,0.2c0.1,0.1,0.1,0.2,0.1,0.3c0,0.2,0.1,0.3,0.1,0.5c0,0.2,0,0.4,0,0.6v0.5h-1.7v-0.3
				c0-0.7,0.1-1.2,0.2-1.4C232.1,65.3,232.3,65.2,232.6,65.2z"/>
			<path class="st14" d="M239,68.6c-0.1-0.2-0.2-0.3-0.4-0.4c-0.1-0.1-0.3-0.3-0.4-0.4l-1-0.9c-0.2-0.2-0.3-0.3-0.4-0.5
				c-0.1-0.1-0.1-0.3-0.1-0.5c0-0.2,0.1-0.4,0.2-0.5c0.1-0.1,0.3-0.2,0.6-0.2c0.3,0,0.5,0.1,0.6,0.3c0.1,0.2,0.2,0.5,0.3,1l0,0.1
				l0.8-0.3l0-0.1c0-0.6-0.2-1-0.5-1.4c-0.3-0.4-0.7-0.5-1.3-0.5c-0.5,0-1,0.1-1.3,0.4c-0.3,0.3-0.5,0.7-0.5,1.3
				c0,0.4,0.1,0.7,0.2,1c0.2,0.3,0.4,0.6,0.7,0.8l0.9,0.8c0.5,0.4,0.8,0.9,0.8,1.3v0c0,0.3-0.1,0.5-0.2,0.6
				c-0.2,0.2-0.4,0.2-0.6,0.2c-0.3,0-0.5-0.1-0.7-0.3c-0.2-0.2-0.3-0.6-0.3-1.1l0-0.1l-1,0.3l0,0.1c0,0.6,0.2,1.1,0.6,1.5
				c0.3,0.4,0.8,0.6,1.4,0.6c0.6,0,1-0.2,1.4-0.5c0.3-0.3,0.5-0.7,0.5-1.3c0-0.2,0-0.5-0.1-0.7C239.2,69,239.1,68.8,239,68.6z"/>
			<rect x="240.6" y="64.4" class="st14" width="1.1" height="7.1"/>
			<rect x="240.6" y="62.3" class="st14" width="1.1" height="1.4"/>
			<path class="st14" d="M246.9,70.1v-3.3c0-0.8-0.1-1.4-0.4-1.8c-0.3-0.4-0.7-0.6-1.4-0.6c-0.6,0-1.1,0.2-1.4,0.5
				c-0.3,0.3-0.5,0.8-0.5,1.5c0,0,0,0.1,0,0.2v0.1l1.1,0v-0.4c0-0.5,0.1-1.1,0.8-1.1c0.3,0,0.5,0.1,0.6,0.3c0.1,0.2,0.2,0.6,0.2,1.3
				v0.4c-0.3,0.2-0.6,0.3-0.8,0.4c-0.2,0.1-0.5,0.2-0.7,0.4c-0.2,0.1-0.4,0.3-0.6,0.4c-0.1,0.1-0.3,0.3-0.4,0.4
				c-0.1,0.2-0.2,0.4-0.2,0.5c0,0.2-0.1,0.4-0.1,0.6c0,0.5,0.1,0.9,0.4,1.2c0.3,0.3,0.6,0.5,1.1,0.5c0.4,0,0.7-0.1,1-0.3
				c0.2-0.1,0.3-0.3,0.4-0.4l0.1,0.7h1l0-0.1C247,71.1,246.9,70.6,246.9,70.1z M245.8,70c-0.1,0.2-0.2,0.4-0.4,0.5
				c-0.2,0.1-0.4,0.2-0.6,0.2c-0.2,0-0.4-0.1-0.5-0.2c-0.1-0.1-0.2-0.4-0.2-0.7c0-0.1,0-0.2,0-0.3c0-0.1,0-0.2,0.1-0.2
				c0-0.1,0.1-0.2,0.1-0.2c0-0.1,0.1-0.1,0.2-0.2c0.1-0.1,0.2-0.1,0.2-0.2c0.1-0.1,0.2-0.1,0.3-0.2c0.1-0.1,0.3-0.1,0.4-0.2
				c0.1,0,0.2-0.1,0.4-0.2V70z"/>
			<polygon class="st14" points="250.4,62.6 252.3,62.6 252.3,71.5 253.5,71.5 253.5,62.6 255.4,62.6 255.4,61.7 250.4,61.7 			"/>
			<path class="st14" d="M259.8,68l0-0.7c0-0.4,0-0.8,0-1.1c0-0.3-0.1-0.6-0.2-0.8c-0.1-0.3-0.2-0.5-0.3-0.6
				c-0.1-0.2-0.3-0.3-0.6-0.3c-0.2-0.1-0.5-0.1-0.8-0.1c-0.5,0-0.8,0.1-1.1,0.3c-0.3,0.2-0.5,0.5-0.7,0.9c-0.1,0.4-0.2,1-0.2,1.6
				v1.7c0,1,0.1,1.7,0.5,2.1c0.3,0.4,0.8,0.7,1.5,0.7c0.7,0,1.2-0.2,1.5-0.6c0.3-0.4,0.4-0.9,0.4-1.6V69h-1.1v0.6
				c0,0.5-0.1,0.8-0.2,1c-0.1,0.2-0.3,0.2-0.6,0.2c-0.3,0-0.6-0.1-0.7-0.4c-0.1-0.3-0.2-0.8-0.2-1.5V68H259.8z M257.9,65.2
				c0.1,0,0.3,0,0.4,0.1c0.1,0,0.2,0.1,0.2,0.2c0.1,0.1,0.1,0.2,0.1,0.3c0,0.2,0.1,0.3,0.1,0.5c0,0.2,0,0.4,0,0.6v0.5h-1.7v-0.3
				c0-0.7,0.1-1.2,0.2-1.4C257.4,65.3,257.6,65.2,257.9,65.2z"/>
			<path class="st14" d="M263.8,64.4c-0.3,0-0.6,0.1-0.9,0.3c-0.2,0.1-0.4,0.3-0.6,0.5v-0.7h-1.1v7.1h1.1v-5.4
				c0.3-0.5,0.7-0.7,1.2-0.7c0.1,0,0.3,0,0.4,0.1l0.2,0.1v-1.2l-0.1,0C263.9,64.4,263.8,64.4,263.8,64.4z"/>
			<rect x="265.2" y="61.7" class="st14" width="1.1" height="9.8"/>
			<path class="st14" d="M271.5,68l0-0.7c0-0.4,0-0.8,0-1.1c0-0.3-0.1-0.6-0.2-0.8c-0.1-0.3-0.2-0.5-0.3-0.6
				c-0.1-0.2-0.3-0.3-0.6-0.3c-0.2-0.1-0.5-0.1-0.8-0.1c-0.5,0-0.8,0.1-1.1,0.3c-0.3,0.2-0.5,0.5-0.7,0.9c-0.1,0.4-0.2,1-0.2,1.6
				v1.7c0,1,0.1,1.7,0.5,2.1c0.3,0.4,0.8,0.7,1.5,0.7c0.7,0,1.2-0.2,1.5-0.6c0.3-0.4,0.4-0.9,0.4-1.6V69h-1.1v0.6
				c0,0.5-0.1,0.8-0.2,1c-0.1,0.2-0.3,0.2-0.6,0.2c-0.3,0-0.6-0.1-0.7-0.4c-0.1-0.3-0.2-0.8-0.2-1.5V68H271.5z M269.6,65.2
				c0.1,0,0.3,0,0.4,0.1c0.1,0,0.2,0.1,0.2,0.2c0.1,0.1,0.1,0.2,0.1,0.3c0,0.2,0.1,0.3,0.1,0.5c0,0.2,0,0.4,0,0.6v0.5h-1.7v-0.3
				c0-0.7,0.1-1.2,0.2-1.4C269.1,65.3,269.3,65.2,269.6,65.2z"/>
			<path class="st14" d="M275.5,64.3c-0.5,0-1.1,0.2-1.5,0.7v-0.6h-1.1v7.1h1.1v-5.7c0.4-0.4,0.7-0.6,1.1-0.6c0.2,0,0.3,0.1,0.4,0.2
				c0.1,0.1,0.1,0.4,0.1,0.7v5.4h1.1v-5.6c0-0.5-0.1-0.9-0.3-1.1C276.1,64.5,275.9,64.3,275.5,64.3z"/>
			<path class="st14" d="M282.3,64.4c-0.2,0.1-0.4,0.2-0.6,0.4c-0.1,0.1-0.2,0.2-0.3,0.3c-0.3-0.5-0.8-0.8-1.5-0.8
				c-0.3,0-0.6,0.1-0.9,0.2c-0.3,0.1-0.5,0.3-0.6,0.6c-0.2,0.2-0.3,0.5-0.4,0.8c-0.1,0.3-0.1,0.6-0.1,1c0,1,0.3,1.7,0.8,2.1
				c-0.5,0.5-0.8,1-0.8,1.4c0,0.2,0.1,0.3,0.3,0.4c0.1,0.1,0.2,0.1,0.3,0.2c-0.2,0.2-0.4,0.3-0.6,0.6c-0.2,0.3-0.4,0.6-0.4,1
				c0,0.2,0.1,0.4,0.2,0.6c0.1,0.2,0.3,0.3,0.5,0.4c0.2,0.1,0.5,0.2,0.8,0.2c0.3,0,0.6,0.1,1,0.1c0.7,0,1.2-0.1,1.6-0.4
				c0.4-0.3,0.6-0.7,0.6-1.3c0-0.5-0.2-0.9-0.5-1.1c-0.3-0.3-0.8-0.4-1.3-0.6c0,0-0.1,0-0.5-0.1c-0.4-0.1-0.5-0.1-0.6-0.1l0,0
				c-0.4-0.1-0.5-0.1-0.5-0.1c0,0,0-0.1,0-0.2c0-0.1,0.1-0.2,0.1-0.2c0-0.1,0.1-0.1,0.2-0.3c0-0.1,0.1-0.1,0.1-0.1
				c0.1,0,0.1,0,0.2,0c0.2,0,0.3,0,0.4,0c0.7,0,1.2-0.2,1.5-0.7c0.3-0.4,0.5-1.1,0.5-1.8c0-0.2,0-0.4-0.1-0.6c0-0.2-0.1-0.4-0.1-0.5
				c0.1-0.1,0.2-0.2,0.4-0.3c0.2-0.1,0.4-0.2,0.6-0.2l0.1,0l-0.3-0.8L282.3,64.4z M278.6,72.2c0-0.4,0.3-0.7,0.8-1.1l0.8,0.1
				c0.5,0.1,0.8,0.2,1,0.3c0.1,0.1,0.2,0.3,0.2,0.5c0,0.3-0.1,0.4-0.3,0.6c-0.2,0.1-0.6,0.2-1,0.2c-0.5,0-0.9-0.1-1.2-0.2
				C278.7,72.6,278.6,72.5,278.6,72.2z M280,68.5c-0.7,0-1-0.6-1-1.7c0-0.2,0-0.3,0-0.5c0-0.1,0.1-0.3,0.1-0.5
				c0-0.2,0.1-0.3,0.2-0.4c0.1-0.1,0.2-0.2,0.3-0.3c0.1-0.1,0.3-0.1,0.4-0.1c0.7,0,1,0.5,1,1.7c0,0.2,0,0.4,0,0.5
				c0,0.1,0,0.3-0.1,0.5c0,0.2-0.1,0.3-0.2,0.4c-0.1,0.1-0.2,0.2-0.3,0.2C280.3,68.5,280.1,68.5,280,68.5z"/>
			<polygon class="st14" points="286.8,64.4 284.6,67.5 284.6,61.7 283.5,61.7 283.5,71.5 284.6,71.5 284.6,68.9 285.3,67.9 
				286.7,71.5 287.8,71.5 286.1,67.2 288,64.4 			"/>
			<path class="st14" d="M292.3,70.1v-3.3c0-0.8-0.1-1.4-0.4-1.8c-0.3-0.4-0.7-0.6-1.4-0.6c-0.6,0-1.1,0.2-1.4,0.5
				c-0.3,0.3-0.5,0.8-0.5,1.5c0,0,0,0.1,0,0.2v0.1l1.1,0v-0.4c0-0.5,0.1-1.1,0.8-1.1c0.3,0,0.5,0.1,0.6,0.3c0.1,0.2,0.2,0.6,0.2,1.3
				v0.4c-0.3,0.2-0.6,0.3-0.8,0.4c-0.2,0.1-0.5,0.2-0.7,0.4c-0.2,0.1-0.4,0.3-0.6,0.4c-0.1,0.1-0.3,0.3-0.4,0.4
				c-0.1,0.2-0.2,0.4-0.2,0.5c0,0.2-0.1,0.4-0.1,0.6c0,0.5,0.1,0.9,0.4,1.2c0.3,0.3,0.6,0.5,1.1,0.5c0.4,0,0.7-0.1,1-0.3
				c0.2-0.1,0.3-0.3,0.4-0.4l0.1,0.7h1l0-0.1C292.3,71.1,292.3,70.6,292.3,70.1z M291.2,70c-0.1,0.2-0.2,0.4-0.4,0.5
				c-0.2,0.1-0.4,0.2-0.6,0.2c-0.2,0-0.4-0.1-0.5-0.2c-0.1-0.1-0.2-0.4-0.2-0.7c0-0.1,0-0.2,0-0.3c0-0.1,0-0.2,0.1-0.2
				c0-0.1,0.1-0.2,0.1-0.2c0-0.1,0.1-0.1,0.2-0.2c0.1-0.1,0.2-0.1,0.2-0.2c0.1-0.1,0.2-0.1,0.3-0.2c0.1-0.1,0.3-0.1,0.4-0.2
				c0.1,0,0.2-0.1,0.4-0.2V70z"/>
			<path class="st14" d="M297.7,66.4c0-0.2-0.1-0.5-0.1-0.8c-0.1-0.3-0.2-0.5-0.3-0.7c-0.1-0.2-0.3-0.3-0.5-0.4
				c-0.2-0.1-0.5-0.2-0.7-0.2c-0.5,0-0.9,0.2-1.2,0.5v-0.4h-1.1v9.4h1.1v-2.6c0.3,0.3,0.7,0.5,1.1,0.5c0.3,0,0.5,0,0.7-0.1
				c0.2-0.1,0.4-0.2,0.5-0.4c0.1-0.2,0.2-0.4,0.3-0.6c0.1-0.3,0.1-0.5,0.2-0.8c0-0.3,0-0.6,0-1v-1.5
				C297.7,66.9,297.7,66.6,297.7,66.4z M296.6,67.2v1.5c0,0.3,0,0.6,0,0.8c0,0.2,0,0.4-0.1,0.6c0,0.2-0.1,0.3-0.1,0.4
				c-0.1,0.1-0.1,0.2-0.2,0.2c-0.1,0.1-0.2,0.1-0.3,0.1c-0.4,0-0.7-0.1-1-0.4v-4.6c0.3-0.3,0.6-0.5,1-0.5c0.3,0,0.5,0.1,0.6,0.4
				C296.5,66,296.6,66.5,296.6,67.2z"/>
		</g>
	</g>
</g>
</svg>
